{
	"asset":{
		"generator":"Khronos glTF Blender I/O v3.5.30",
		"version":"2.0"
	},
	"scene":0,
	"scenes":[
		{
			"name":"Scene",
			"nodes":[
				0
			]
		}
	],
	"nodes":[
		{
			"mesh":0,
			"name":"CubeMap-col",
			"scale":[
				1.100000023841858,
				1.100000023841858,
				1.100000023841858
			]
		}
	],
	"meshes":[
		{
			"name":"Cube.003",
			"primitives":[
				{
					"attributes":{
						"POSITION":0,
						"TEXCOORD_0":1,
						"NORMAL":2
					},
					"indices":3
				}
			]
		}
	],
	"accessors":[
		{
			"bufferView":0,
			"componentType":5126,
			"count":816,
			"max":[
				1,
				1,
				1
			],
			"min":[
				-1,
				-1,
				-1
			],
			"type":"VEC3"
		},
		{
			"bufferView":1,
			"componentType":5126,
			"count":816,
			"type":"VEC2"
		},
		{
			"bufferView":2,
			"componentType":5126,
			"count":816,
			"type":"VEC3"
		},
		{
			"bufferView":3,
			"componentType":5123,
			"count":1680,
			"type":"SCALAR"
		}
	],
	"bufferViews":[
		{
			"buffer":0,
			"byteLength":9792,
			"byteOffset":0,
			"target":34962
		},
		{
			"buffer":0,
			"byteLength":6528,
			"byteOffset":9792,
			"target":34962
		},
		{
			"buffer":0,
			"byteLength":9792,
			"byteOffset":16320,
			"target":34962
		},
		{
			"buffer":0,
			"byteLength":3360,
			"byteOffset":26112,
			"target":34963
		}
	],
	"buffers":[
		{
			"byteLength":29472,
			"uri":"data:application/octet-stream;base64,"
		}
	]
}
