{
	"asset":{
		"generator":"Khronos glTF Blender I/O v3.5.30",
		"version":"2.0"
	},
	"scene":0,
	"scenes":[
		{
			"name":"Scene",
			"nodes":[
				0
			]
		}
	],
	"nodes":[
		{
			"mesh":0,
			"name":"CubeMap-col",
			"scale":[
				1.100000023841858,
				1.100000023841858,
				1.100000023841858
			]
		}
	],
	"materials":[
		{
			"doubleSided":true,
			"name":"Material.001",
			"pbrMetallicRoughness":{
				"baseColorFactor":[
					0.800000011920929,
					0.800000011920929,
					0.800000011920929,
					1
				],
				"metallicFactor":0,
				"roughnessFactor":0.5
			}
		}
	],
	"meshes":[
		{
			"name":"Cube.001",
			"primitives":[
				{
					"attributes":{
						"POSITION":0,
						"TEXCOORD_0":1,
						"NORMAL":2
					},
					"indices":3,
					"material":0
				},
				{
					"attributes":{
						"POSITION":4,
						"TEXCOORD_0":5,
						"NORMAL":6
					},
					"indices":7,
					"material":0
				}
			]
		}
	],
	"accessors":[
		{
			"bufferView":0,
			"componentType":5126,
			"count":831,
			"max":[
				1,
				1,
				1
			],
			"min":[
				-1,
				-1,
				-1
			],
			"type":"VEC3"
		},
		{
			"bufferView":1,
			"componentType":5126,
			"count":831,
			"type":"VEC2"
		},
		{
			"bufferView":2,
			"componentType":5126,
			"count":831,
			"type":"VEC3"
		},
		{
			"bufferView":3,
			"componentType":5123,
			"count":2328,
			"type":"SCALAR"
		},
		{
			"bufferView":4,
			"componentType":5126,
			"count":418,
			"max":[
				-0.692388117313385,
				0.9090908765792847,
				0.9090908765792847
			],
			"min":[
				-1,
				-0.9090908765792847,
				-0.9090908765792847
			],
			"type":"VEC3"
		},
		{
			"bufferView":5,
			"componentType":5126,
			"count":418,
			"type":"VEC2"
		},
		{
			"bufferView":6,
			"componentType":5126,
			"count":418,
			"type":"VEC3"
		},
		{
			"bufferView":7,
			"componentType":5123,
			"count":912,
			"type":"SCALAR"
		}
	],
	"bufferViews":[
		{
			"buffer":0,
			"byteLength":9972,
			"byteOffset":0,
			"target":34962
		},
		{
			"buffer":0,
			"byteLength":6648,
			"byteOffset":9972,
			"target":34962
		},
		{
			"buffer":0,
			"byteLength":9972,
			"byteOffset":16620,
			"target":34962
		},
		{
			"buffer":0,
			"byteLength":4656,
			"byteOffset":26592,
			"target":34963
		},
		{
			"buffer":0,
			"byteLength":5016,
			"byteOffset":31248,
			"target":34962
		},
		{
			"buffer":0,
			"byteLength":3344,
			"byteOffset":36264,
			"target":34962
		},
		{
			"buffer":0,
			"byteLength":5016,
			"byteOffset":39608,
			"target":34962
		},
		{
			"buffer":0,
			"byteLength":1824,
			"byteOffset":44624,
			"target":34963
		}
	],
	"buffers":[
		{
			"byteLength":46448,
			"uri":"data:application/octet-stream;base64,"
		}
	]
}
