{
	"asset":{
		"generator":"Khronos glTF Blender I/O v3.5.30",
		"version":"2.0"
	},
	"scene":0,
	"scenes":[
		{
			"name":"Scene",
			"nodes":[
				0
			]
		}
	],
	"nodes":[
		{
			"mesh":0,
			"name":"CubeMap-col",
			"scale":[
				1.100000023841858,
				1.100000023841858,
				1.100000023841858
			]
		}
	],
	"materials":[
		{
			"doubleSided":true,
			"name":"Material",
			"pbrMetallicRoughness":{
				"baseColorFactor":[
					0.800000011920929,
					0.800000011920929,
					0.800000011920929,
					1
				],
				"metallicFactor":0,
				"roughnessFactor":0.5
			}
		}
	],
	"meshes":[
		{
			"name":"Cube.001",
			"primitives":[
				{
					"attributes":{
						"POSITION":0,
						"TEXCOORD_0":1,
						"NORMAL":2
					},
					"indices":3,
					"material":0
				}
			]
		}
	],
	"accessors":[
		{
			"bufferView":0,
			"componentType":5126,
			"count":4584,
			"max":[
				1,
				1,
				1
			],
			"min":[
				-1,
				-1,
				-1
			],
			"type":"VEC3"
		},
		{
			"bufferView":1,
			"componentType":5126,
			"count":4584,
			"type":"VEC2"
		},
		{
			"bufferView":2,
			"componentType":5126,
			"count":4584,
			"type":"VEC3"
		},
		{
			"bufferView":3,
			"componentType":5123,
			"count":6996,
			"type":"SCALAR"
		}
	],
	"bufferViews":[
		{
			"buffer":0,
			"byteLength":55008,
			"byteOffset":0,
			"target":34962
		},
		{
			"buffer":0,
			"byteLength":36672,
			"byteOffset":55008,
			"target":34962
		},
		{
			"buffer":0,
			"byteLength":55008,
			"byteOffset":91680,
			"target":34962
		},
		{
			"buffer":0,
			"byteLength":13992,
			"byteOffset":146688,
			"target":34963
		}
	],
	"buffers":[
		{
			"byteLength":160680,
			"uri":"data:application/octet-stream;base64,"
		}
	]
}
