{
	"asset":{
		"generator":"Khronos glTF Blender I/O v3.5.30",
		"version":"2.0"
	},
	"scene":0,
	"scenes":[
		{
			"name":"Scene",
			"nodes":[
				0
			]
		}
	],
	"nodes":[
		{
			"mesh":0,
			"name":"track-col",
			"rotation":[
				-0.70710688829422,
				0,
				0,
				0.7071066498756409
			]
		}
	],
	"materials":[
		{
			"doubleSided":true,
			"name":"Material.001",
			"pbrMetallicRoughness":{
				"baseColorFactor":[
					0.17064499855041504,
					0.17064499855041504,
					0.17064499855041504,
					1
				],
				"metallicFactor":0
			}
		},
		{
			"doubleSided":true,
			"name":"Material.002",
			"pbrMetallicRoughness":{
				"metallicFactor":0
			}
		},
		{
			"doubleSided":true,
			"name":"Material.003",
			"pbrMetallicRoughness":{
				"metallicFactor":0
			}
		},
		{
			"doubleSided":true,
			"name":"Material.004",
			"pbrMetallicRoughness":{
				"baseColorFactor":[
					1,
					0.025366999208927155,
					0.028897300362586975,
					1
				],
				"metallicFactor":0
			}
		},
		{
			"doubleSided":true,
			"name":"Material.005",
			"pbrMetallicRoughness":{
				"metallicFactor":0
			}
		}
	],
	"meshes":[
		{
			"name":"Cube.014_Material.001_0",
			"primitives":[
				{
					"attributes":{
						"POSITION":0,
						"TEXCOORD_0":1,
						"NORMAL":2
					},
					"indices":3,
					"material":0
				},
				{
					"attributes":{
						"POSITION":4,
						"TEXCOORD_0":5,
						"NORMAL":6
					},
					"indices":7,
					"material":1
				},
				{
					"attributes":{
						"POSITION":8,
						"TEXCOORD_0":9,
						"NORMAL":10
					},
					"indices":11,
					"material":2
				},
				{
					"attributes":{
						"POSITION":12,
						"TEXCOORD_0":13,
						"NORMAL":14
					},
					"indices":15,
					"material":3
				},
				{
					"attributes":{
						"POSITION":16,
						"TEXCOORD_0":17,
						"NORMAL":18
					},
					"indices":19,
					"material":4
				}
			]
		}
	],
	"accessors":[
		{
			"bufferView":0,
			"componentType":5126,
			"count":13303,
			"max":[
				261.2734069824219,
				516.7443237304688,
				24.205379486083984
			],
			"min":[
				-134.14462280273438,
				-17.344594955444336,
				-3.532815933227539
			],
			"type":"VEC3"
		},
		{
			"bufferView":1,
			"componentType":5126,
			"count":13303,
			"type":"VEC2"
		},
		{
			"bufferView":2,
			"componentType":5126,
			"count":13303,
			"type":"VEC3"
		},
		{
			"bufferView":3,
			"componentType":5123,
			"count":29871,
			"type":"SCALAR"
		},
		{
			"bufferView":4,
			"componentType":5126,
			"count":2276,
			"max":[
				258.25634765625,
				465.17572021484375,
				24.205379486083984
			],
			"min":[
				-131.55580139160156,
				-14.336212158203125,
				0.20536835491657257
			],
			"type":"VEC3"
		},
		{
			"bufferView":5,
			"componentType":5126,
			"count":2276,
			"type":"VEC2"
		},
		{
			"bufferView":6,
			"componentType":5126,
			"count":2276,
			"type":"VEC3"
		},
		{
			"bufferView":7,
			"componentType":5123,
			"count":3954,
			"type":"SCALAR"
		},
		{
			"bufferView":8,
			"componentType":5126,
			"count":1760,
			"max":[
				260.9443359375,
				516.4152221679688,
				0.9698694348335266
			],
			"min":[
				-134.14462280273438,
				-17.015522003173828,
				0.20536324381828308
			],
			"type":"VEC3"
		},
		{
			"bufferView":9,
			"componentType":5126,
			"count":1760,
			"type":"VEC2"
		},
		{
			"bufferView":10,
			"componentType":5126,
			"count":1760,
			"type":"VEC3"
		},
		{
			"bufferView":11,
			"componentType":5123,
			"count":4980,
			"type":"SCALAR"
		},
		{
			"bufferView":12,
			"componentType":5126,
			"count":1040,
			"max":[
				261.2731628417969,
				516.7440795898438,
				0.9698693156242371
			],
			"min":[
				-134.14418029785156,
				-17.344356536865234,
				0.004825602285563946
			],
			"type":"VEC3"
		},
		{
			"bufferView":13,
			"componentType":5126,
			"count":1040,
			"type":"VEC2"
		},
		{
			"bufferView":14,
			"componentType":5126,
			"count":1040,
			"type":"VEC3"
		},
		{
			"bufferView":15,
			"componentType":5123,
			"count":2940,
			"type":"SCALAR"
		},
		{
			"bufferView":16,
			"componentType":5126,
			"count":108,
			"max":[
				162.43057250976562,
				233.91030883789062,
				0.20537279546260834
			],
			"min":[
				150.2676544189453,
				207.80209350585938,
				0.20537279546260834
			],
			"type":"VEC3"
		},
		{
			"bufferView":17,
			"componentType":5126,
			"count":108,
			"type":"VEC2"
		},
		{
			"bufferView":18,
			"componentType":5126,
			"count":108,
			"type":"VEC3"
		},
		{
			"bufferView":19,
			"componentType":5123,
			"count":270,
			"type":"SCALAR"
		}
	],
	"bufferViews":[
		{
			"buffer":0,
			"byteLength":159636,
			"byteOffset":0,
			"target":34962
		},
		{
			"buffer":0,
			"byteLength":106424,
			"byteOffset":159636,
			"target":34962
		},
		{
			"buffer":0,
			"byteLength":159636,
			"byteOffset":266060,
			"target":34962
		},
		{
			"buffer":0,
			"byteLength":59742,
			"byteOffset":425696,
			"target":34963
		},
		{
			"buffer":0,
			"byteLength":27312,
			"byteOffset":485440,
			"target":34962
		},
		{
			"buffer":0,
			"byteLength":18208,
			"byteOffset":512752,
			"target":34962
		},
		{
			"buffer":0,
			"byteLength":27312,
			"byteOffset":530960,
			"target":34962
		},
		{
			"buffer":0,
			"byteLength":7908,
			"byteOffset":558272,
			"target":34963
		},
		{
			"buffer":0,
			"byteLength":21120,
			"byteOffset":566180,
			"target":34962
		},
		{
			"buffer":0,
			"byteLength":14080,
			"byteOffset":587300,
			"target":34962
		},
		{
			"buffer":0,
			"byteLength":21120,
			"byteOffset":601380,
			"target":34962
		},
		{
			"buffer":0,
			"byteLength":9960,
			"byteOffset":622500,
			"target":34963
		},
		{
			"buffer":0,
			"byteLength":12480,
			"byteOffset":632460,
			"target":34962
		},
		{
			"buffer":0,
			"byteLength":8320,
			"byteOffset":644940,
			"target":34962
		},
		{
			"buffer":0,
			"byteLength":12480,
			"byteOffset":653260,
			"target":34962
		},
		{
			"buffer":0,
			"byteLength":5880,
			"byteOffset":665740,
			"target":34963
		},
		{
			"buffer":0,
			"byteLength":1296,
			"byteOffset":671620,
			"target":34962
		},
		{
			"buffer":0,
			"byteLength":864,
			"byteOffset":672916,
			"target":34962
		},
		{
			"buffer":0,
			"byteLength":1296,
			"byteOffset":673780,
			"target":34962
		},
		{
			"buffer":0,
			"byteLength":540,
			"byteOffset":675076,
			"target":34963
		}
	],
	"buffers":[
		{
			"byteLength":675616,
			"uri":"data:application/octet-stream;base64,"
		}
	]
}
