{
	"asset":{
		"generator":"Khronos glTF Blender I/O v3.5.30",
		"version":"2.0"
	},
	"scene":0,
	"scenes":[
		{
			"name":"Scene",
			"nodes":[
				0
			]
		}
	],
	"nodes":[
		{
			"mesh":0,
			"name":"track-col",
			"scale":[
				14,
				0.20000000298023224,
				66
			],
			"translation":[
				59.959835052490234,
				18,
				-222.04611206054688
			]
		}
	],
	"materials":[
		{
			"doubleSided":true,
			"name":"Material",
			"pbrMetallicRoughness":{
				"baseColorFactor":[
					0.800000011920929,
					0.800000011920929,
					0.800000011920929,
					1
				],
				"metallicFactor":0,
				"roughnessFactor":0.5
			}
		},
		{
			"doubleSided":true,
			"name":"Material.001",
			"pbrMetallicRoughness":{
				"baseColorFactor":[
					0.17064499855041504,
					0.17064499855041504,
					0.17064499855041504,
					1
				],
				"metallicFactor":0
			}
		},
		{
			"doubleSided":true,
			"name":"Material.002",
			"pbrMetallicRoughness":{
				"metallicFactor":0
			}
		},
		{
			"doubleSided":true,
			"name":"Material.003",
			"pbrMetallicRoughness":{
				"metallicFactor":0
			}
		},
		{
			"doubleSided":true,
			"name":"Material.004",
			"pbrMetallicRoughness":{
				"baseColorFactor":[
					1,
					0.025366999208927155,
					0.028897300362586975,
					1
				],
				"metallicFactor":0
			}
		},
		{
			"doubleSided":true,
			"name":"Material.005",
			"pbrMetallicRoughness":{
				"metallicFactor":0
			}
		}
	],
	"meshes":[
		{
			"name":"Cube.001",
			"primitives":[
				{
					"attributes":{
						"POSITION":0,
						"TEXCOORD_0":1,
						"NORMAL":2
					},
					"indices":3,
					"material":0
				},
				{
					"attributes":{
						"POSITION":4,
						"TEXCOORD_0":5,
						"NORMAL":6
					},
					"indices":7,
					"material":1
				},
				{
					"attributes":{
						"POSITION":8,
						"TEXCOORD_0":9,
						"NORMAL":10
					},
					"indices":11,
					"material":2
				},
				{
					"attributes":{
						"POSITION":12,
						"TEXCOORD_0":13,
						"NORMAL":14
					},
					"indices":15,
					"material":3
				},
				{
					"attributes":{
						"POSITION":16,
						"TEXCOORD_0":17,
						"NORMAL":18
					},
					"indices":19,
					"material":4
				},
				{
					"attributes":{
						"POSITION":20,
						"TEXCOORD_0":21,
						"NORMAL":22
					},
					"indices":23,
					"material":5
				}
			]
		}
	],
	"accessors":[
		{
			"bufferView":0,
			"componentType":5126,
			"count":24,
			"max":[
				1,
				1,
				1
			],
			"min":[
				-1,
				-1,
				-1
			],
			"type":"VEC3"
		},
		{
			"bufferView":1,
			"componentType":5126,
			"count":24,
			"type":"VEC2"
		},
		{
			"bufferView":2,
			"componentType":5126,
			"count":24,
			"type":"VEC3"
		},
		{
			"bufferView":3,
			"componentType":5123,
			"count":36,
			"type":"SCALAR"
		},
		{
			"bufferView":4,
			"componentType":5126,
			"count":14051,
			"max":[
				14.37954044342041,
				31.02666473388672,
				3.627131938934326
			],
			"min":[
				-13.864603996276855,
				-107.66448974609375,
				-4.465123653411865
			],
			"type":"VEC3"
		},
		{
			"bufferView":5,
			"componentType":5126,
			"count":14051,
			"type":"VEC2"
		},
		{
			"bufferView":6,
			"componentType":5126,
			"count":14051,
			"type":"VEC3"
		},
		{
			"bufferView":7,
			"componentType":5123,
			"count":29871,
			"type":"SCALAR"
		},
		{
			"bufferView":8,
			"componentType":5126,
			"count":2537,
			"max":[
				14.164034843444824,
				31.02666473388672,
				3.581550359725952
			],
			"min":[
				-13.6796875,
				-88.97384643554688,
				-3.683781147003174
			],
			"type":"VEC3"
		},
		{
			"bufferView":9,
			"componentType":5126,
			"count":2537,
			"type":"VEC2"
		},
		{
			"bufferView":10,
			"componentType":5126,
			"count":2537,
			"type":"VEC3"
		},
		{
			"bufferView":11,
			"componentType":5123,
			"count":3954,
			"type":"SCALAR"
		},
		{
			"bufferView":12,
			"componentType":5126,
			"count":1760,
			"max":[
				14.356034278869629,
				-85.15067291259766,
				3.622145891189575
			],
			"min":[
				-13.864603996276855,
				-88.97393035888672,
				-4.460137367248535
			],
			"type":"VEC3"
		},
		{
			"bufferView":13,
			"componentType":5126,
			"count":1760,
			"type":"VEC2"
		},
		{
			"bufferView":14,
			"componentType":5126,
			"count":1760,
			"type":"VEC3"
		},
		{
			"bufferView":15,
			"componentType":5123,
			"count":4980,
			"type":"SCALAR"
		},
		{
			"bufferView":16,
			"componentType":5126,
			"count":1040,
			"max":[
				14.379521369934082,
				-85.15067291259766,
				3.6271283626556396
			],
			"min":[
				-13.864572525024414,
				-89.97663879394531,
				-4.4651198387146
			],
			"type":"VEC3"
		},
		{
			"bufferView":17,
			"componentType":5126,
			"count":1040,
			"type":"VEC2"
		},
		{
			"bufferView":18,
			"componentType":5126,
			"count":1040,
			"type":"VEC3"
		},
		{
			"bufferView":19,
			"componentType":5123,
			"count":2940,
			"type":"SCALAR"
		},
		{
			"bufferView":20,
			"componentType":5126,
			"count":162,
			"max":[
				7.319337844848633,
				-88.97344207763672,
				0.2158188819885254
			],
			"min":[
				6.450557708740234,
				-88.97348022460938,
				-0.17976021766662598
			],
			"type":"VEC3"
		},
		{
			"bufferView":21,
			"componentType":5126,
			"count":162,
			"type":"VEC2"
		},
		{
			"bufferView":22,
			"componentType":5126,
			"count":162,
			"type":"VEC3"
		},
		{
			"bufferView":23,
			"componentType":5123,
			"count":270,
			"type":"SCALAR"
		}
	],
	"bufferViews":[
		{
			"buffer":0,
			"byteLength":288,
			"byteOffset":0,
			"target":34962
		},
		{
			"buffer":0,
			"byteLength":192,
			"byteOffset":288,
			"target":34962
		},
		{
			"buffer":0,
			"byteLength":288,
			"byteOffset":480,
			"target":34962
		},
		{
			"buffer":0,
			"byteLength":72,
			"byteOffset":768,
			"target":34963
		},
		{
			"buffer":0,
			"byteLength":168612,
			"byteOffset":840,
			"target":34962
		},
		{
			"buffer":0,
			"byteLength":112408,
			"byteOffset":169452,
			"target":34962
		},
		{
			"buffer":0,
			"byteLength":168612,
			"byteOffset":281860,
			"target":34962
		},
		{
			"buffer":0,
			"byteLength":59742,
			"byteOffset":450472,
			"target":34963
		},
		{
			"buffer":0,
			"byteLength":30444,
			"byteOffset":510216,
			"target":34962
		},
		{
			"buffer":0,
			"byteLength":20296,
			"byteOffset":540660,
			"target":34962
		},
		{
			"buffer":0,
			"byteLength":30444,
			"byteOffset":560956,
			"target":34962
		},
		{
			"buffer":0,
			"byteLength":7908,
			"byteOffset":591400,
			"target":34963
		},
		{
			"buffer":0,
			"byteLength":21120,
			"byteOffset":599308,
			"target":34962
		},
		{
			"buffer":0,
			"byteLength":14080,
			"byteOffset":620428,
			"target":34962
		},
		{
			"buffer":0,
			"byteLength":21120,
			"byteOffset":634508,
			"target":34962
		},
		{
			"buffer":0,
			"byteLength":9960,
			"byteOffset":655628,
			"target":34963
		},
		{
			"buffer":0,
			"byteLength":12480,
			"byteOffset":665588,
			"target":34962
		},
		{
			"buffer":0,
			"byteLength":8320,
			"byteOffset":678068,
			"target":34962
		},
		{
			"buffer":0,
			"byteLength":12480,
			"byteOffset":686388,
			"target":34962
		},
		{
			"buffer":0,
			"byteLength":5880,
			"byteOffset":698868,
			"target":34963
		},
		{
			"buffer":0,
			"byteLength":1944,
			"byteOffset":704748,
			"target":34962
		},
		{
			"buffer":0,
			"byteLength":1296,
			"byteOffset":706692,
			"target":34962
		},
		{
			"buffer":0,
			"byteLength":1944,
			"byteOffset":707988,
			"target":34962
		},
		{
			"buffer":0,
			"byteLength":540,
			"byteOffset":709932,
			"target":34963
		}
	],
	"buffers":[
		{
			"byteLength":710472,
			"uri":"data:application/octet-stream;base64,"
		}
	]
}
